# Blender v3.4.1 OBJ File: ''
# www.blender.org
mtllib skydome.mtl
o Cube.001
v 66.000000 66.000008 -65.999992
v 66.000000 65.999992 66.000008
v -66.000000 65.999992 66.000008
v -66.000000 66.000008 -65.999992
v 66.000000 -66.000008 65.999992
v -66.000000 -66.000008 65.999992
v -66.000000 -65.999992 -66.000008
v 66.000000 -65.999992 -66.000008
vt 1.000000 0.000000
vt 0.000000 1.000000
vt 1.000000 1.000000
vt 0.000000 0.000000
vt 1.000000 1.000000
vt 1.000000 0.000000
vt 1.000000 0.000000
vt 0.000000 1.000000
vt 1.000000 1.000000
vt 0.000000 1.000000
vt 0.000000 0.000000
vt 1.000000 0.000000
vt 0.000000 0.000000
vt 0.000000 0.000000
vt 1.000000 1.000000
vt 0.000000 1.000000
vn 0.0000 -1.0000 -0.0000
vn 0.0000 0.0000 -1.0000
vn 1.0000 -0.0000 0.0000
vn 0.0000 1.0000 0.0000
vn -1.0000 0.0000 0.0000
vn 0.0000 -0.0000 1.0000
usemtl Material.001
s 1
f 2/1/1 4/2/1 1/3/1
f 6/4/2 2/5/2 5/6/2
f 7/7/3 3/8/3 6/4/3
f 6/4/4 8/9/4 7/10/4
f 5/11/5 1/3/5 8/12/5
f 8/12/6 4/2/6 7/13/6
f 2/1/1 3/14/1 4/2/1
f 6/4/2 3/8/2 2/5/2
f 7/7/3 4/15/3 3/8/3
f 6/4/4 5/6/4 8/9/4
f 5/11/5 2/16/5 1/3/5
f 8/12/6 1/3/6 4/2/6
